<svg xmlns="http://www.w3.org/2000/svg" viewBox="0 0 24 24" fill="none">
  <!-- Skull -->
  <path d="M12 2C6.48 2 2 6.48 2 12c0 2.4.84 4.6 2.24 6.32L3 21l2.76-1.38C7.16 20.44 9.48 21 12 21s4.84-.56 6.24-2.38L21 21l-1.24-2.68C19.16 16.6 20 14.4 20 12c0-5.52-4.48-10-10-10z" fill="#f8fafc"/>
  
  <!-- Eye sockets -->
  <circle cx="8" cy="10" r="2" fill="#0f172a"/>
  <circle cx="16" cy="10" r="2" fill="#0f172a"/>
  
  <!-- Nose -->
  <path d="M12 13l-1 2h2z" fill="#0f172a"/>
  
  <!-- Gold coins pouring from right eye -->
  <circle cx="17" cy="8" r="1.5" fill="#fbbf24"/>
  <circle cx="18.5" cy="6" r="1.2" fill="#f59e0b"/>
  <circle cx="19.5" cy="4" r="1" fill="#fbbf24"/>
  <circle cx="20" cy="2" r="0.8" fill="#f59e0b"/>
  
  <!-- Coin details -->
  <circle cx="17" cy="8" r="0.8" fill="#f59e0b"/>
  <circle cx="18.5" cy="6" r="0.6" fill="#d97706"/>
  <circle cx="19.5" cy="4" r="0.5" fill="#f59e0b"/>
  
  <!-- Teeth -->
  <rect x="10" y="15" width="1" height="1" fill="#0f172a"/>
  <rect x="11.5" y="15" width="1" height="1" fill="#0f172a"/>
  <rect x="13" y="15" width="1" height="1" fill="#0f172a"/>
</svg>
